# xmcd
#
# Track frame offsets:
# 150
# 20652
# 41737
# 62440
# 88120
# 107247
# 130717
# 149475
# 170875
# 188662
#
# Disc length: 2820 seconds
#
# Revision: 1
# Processed by: cddbd v1.5.1PL0 Copyright (c) Steve Scherf et al.
# Submitted via: Easy CD Ripper v2.27
#
DISCID=8e0b020a
DTITLE=周俊偉 - 我愛你
DYEAR=1998
DGENRE=Blues
TTITLE0=我愛你
TTITLE1=我不服
TTITLE2=你別傻了
TTITLE3=想和他在一起
TTITLE4=敢愛不敢恨
TTITLE5=愛千真萬確
TTITLE6=New kid in town
TTITLE7=讓我記得你
TTITLE8=不要太快
TTITLE9=鏡子
EXTD=
EXTT0=
EXTT1=
EXTT2=
EXTT3=
EXTT4=
EXTT5=
EXTT6=
EXTT7=
EXTT8=
EXTT9=
PLAYORDER=
